<svg id="Layer_1" data-name="Layer 1" xmlns="http://www.w3.org/2000/svg" viewBox="0 0 60 60"><defs><style>.cls-1{fill:#6eb214;}.cls-2{fill:none;}.cls-2,.cls-3{stroke:#000;stroke-miterlimit:10;}.cls-3{fill:#fff;}</style></defs><title>ws2</title><rect class="cls-1" x="0.5" y="0.5" width="600" height="600" rx="90" ry="90"/><rect class="cls-2" x="0.5" y="0.5" width="600" height="600" rx="90" ry="90"/><circle class="cls-3" cx="305.5" cy="296.5" r="216.5"/><rect class="cls-1" x="212" y="199.5" width="186.5" height="194.5" rx="11.5" ry="11.5"/><path d="M386.5,199.5a11,11,0,0,1,11,11V382a11,11,0,0,1-11,11H223a11,11,0,0,1-11-11V210.5a11,11,0,0,1,11-11H386.5m0-1H223a12,12,0,0,0-12,12V382a12,12,0,0,0,12,12H386.5a12,12,0,0,0,12-12V210.5a12,12,0,0,0-12-12Z" transform="translate(0.5 0.5)"/></svg>